<svg width="124" height="74" viewBox="0 0 124 74" fill="none" xmlns="http://www.w3.org/2000/svg">
<rect x="0.5" y="0.5" width="123" height="73" rx="4.5" stroke="#8A38F5" stroke-dasharray="10 5"/>
<path d="M31.3334 33.0333V30.7666C31.3334 29.2637 31.9304 27.8224 32.9931 26.7597C34.0558 25.697 35.4972 25.1 37 25.1C38.5029 25.1 39.9443 25.697 41.007 26.7597C42.0697 27.8224 42.6667 29.2637 42.6667 30.7666V33.0333H46.0667C46.3673 33.0333 46.6556 33.1527 46.8681 33.3653C47.0806 33.5778 47.2 33.8661 47.2 34.1666V47.7666C47.2 48.0672 47.0806 48.3555 46.8681 48.568C46.6556 48.7806 46.3673 48.9 46.0667 48.9H27.9334C27.6328 48.9 27.3445 48.7806 27.132 48.568C26.9195 48.3555 26.8 48.0672 26.8 47.7666V34.1666C26.8 33.8661 26.9195 33.5778 27.132 33.3653C27.3445 33.1527 27.6328 33.0333 27.9334 33.0333H31.3334ZM31.3334 35.3H29.0667V46.6333H44.9334V35.3H42.6667V37.5666H40.4V35.3H33.6V37.5666H31.3334V35.3ZM33.6 33.0333H40.4V30.7666C40.4 29.8649 40.0418 29.0001 39.4042 28.3625C38.7666 27.7249 37.9018 27.3666 37 27.3666C36.0983 27.3666 35.2335 27.7249 34.5959 28.3625C33.9583 29.0001 33.6 29.8649 33.6 30.7666V33.0333Z" fill="#001018"/>
<path d="M81.3334 33.0333V30.7666C81.3334 29.2637 81.9304 27.8224 82.9931 26.7597C84.0558 25.697 85.4972 25.1 87 25.1C88.5029 25.1 89.9443 25.697 91.007 26.7597C92.0697 27.8224 92.6667 29.2637 92.6667 30.7666V33.0333H96.0667C96.3673 33.0333 96.6556 33.1527 96.8681 33.3653C97.0806 33.5778 97.2 33.8661 97.2 34.1666V47.7666C97.2 48.0672 97.0806 48.3555 96.8681 48.568C96.6556 48.7806 96.3673 48.9 96.0667 48.9H77.9334C77.6328 48.9 77.3445 48.7806 77.132 48.568C76.9195 48.3555 76.8 48.0672 76.8 47.7666V34.1666C76.8 33.8661 76.9195 33.5778 77.132 33.3653C77.3445 33.1527 77.6328 33.0333 77.9334 33.0333H81.3334ZM81.3334 35.3H79.0667V46.6333H94.9334V35.3H92.6667V37.5666H90.4V35.3H83.6V37.5666H81.3334V35.3ZM83.6 33.0333H90.4V30.7666C90.4 29.8649 90.0418 29.0001 89.4042 28.3625C88.7666 27.7249 87.9018 27.3666 87 27.3666C86.0983 27.3666 85.2335 27.7249 84.5959 28.3625C83.9583 29.0001 83.6 29.8649 83.6 30.7666V33.0333Z" fill="#001018"/>
<rect x="90" y="22" width="13" height="13" rx="6.5" fill="#C08A5B"/>
</svg>
