<svg width="196" height="208" viewBox="0 0 196 208" fill="none" xmlns="http://www.w3.org/2000/svg">
<rect x="0.5" y="0.5" width="195" height="207" rx="4.5" stroke="#7B61FF" stroke-dasharray="10 5"/>
<path d="M144.5 87C147.538 87 150 89.5 150 93C150 100 142.5 104 140 105.5C137.5 104 130 100 130 93C130 89.5 132.5 87 135.5 87C137.36 87 139 88 140 89C141 88 142.64 87 144.5 87Z" fill="#001018"/>
<path d="M143 22C145.025 22 146.667 23.6667 146.667 26C146.667 30.6667 141.667 33.3333 140 34.3333C138.333 33.3333 133.333 30.6667 133.333 26C133.333 23.6667 135 22 137 22C138.24 22 139.333 22.6667 140 23.3333C140.667 22.6667 141.76 22 143 22Z" fill="#001018"/>
<path d="M150 160C154.051 160 157.333 163.333 157.333 168C157.333 177.333 147.333 182.667 144 184.667C140.667 182.667 130.667 177.333 130.667 168C130.667 163.333 134 160 138 160C140.48 160 142.667 161.333 144 162.667C145.333 161.333 147.52 160 150 160Z" fill="#001018"/>
<path fill-rule="evenodd" clip-rule="evenodd" d="M75 93C75 89.5 72.538 87 69.5 87C67.64 87 66 88 65 89C64 88 62.36 87 60.5 87C57.5 87 55 89.5 55 93C55 99.6009 61.6692 103.534 64.5259 105.219C64.6987 105.321 64.8575 105.414 65 105.5C65.1425 105.414 65.3013 105.321 65.4741 105.219C68.3308 103.534 75 99.6009 75 93ZM68.354 100.903C67.61 101.495 66.815 102.048 65.934 102.604C65.635 102.792 65.339 102.973 65 103.175C64.661 102.973 64.365 102.792 64.066 102.603C63.185 102.048 62.39 101.495 61.645 100.903C58.666 98.533 57 95.944 57 93C57 90.656 58.56 89 60.5 89C61.576 89 62.74 89.57 63.586 90.414L65 91.828L66.414 90.414C67.26 89.57 68.424 89 69.5 89C71.463 89 73 90.64 73 93C73 95.943 71.335 98.533 68.354 100.903Z" fill="#001018"/>
<path fill-rule="evenodd" clip-rule="evenodd" d="M71.6668 26C71.6668 23.6667 70.0255 22 68.0002 22C66.7602 22 65.6668 22.6667 65.0002 23.3333C64.3335 22.6667 63.2402 22 62.0002 22C60.0002 22 58.3335 23.6667 58.3335 26C58.3335 30.4006 62.7796 33.0228 64.6841 34.146C64.7993 34.2139 64.9051 34.2763 65.0002 34.3333C65.0952 34.2763 65.201 34.2139 65.3162 34.146C67.2207 33.0228 71.6668 30.4006 71.6668 26ZM67.2362 31.2687C66.7402 31.6633 66.2102 32.032 65.6228 32.4027C65.4235 32.528 65.2262 32.6487 65.0002 32.7833C64.7742 32.6487 64.5768 32.528 64.3775 32.402C63.7902 32.032 63.2602 31.6633 62.7635 31.2687C60.7775 29.6887 59.6668 27.9627 59.6668 26C59.6668 24.4373 60.7068 23.3333 62.0002 23.3333C62.7175 23.3333 63.4935 23.7133 64.0575 24.276L65.0002 25.2187L65.9428 24.276C66.5068 23.7133 67.2828 23.3333 68.0002 23.3333C69.3088 23.3333 70.3335 24.4267 70.3335 26C70.3335 27.962 69.2235 29.6887 67.2362 31.2687Z" fill="#001018"/>
<path fill-rule="evenodd" clip-rule="evenodd" d="M78.3332 168C78.3332 163.333 75.0505 160 70.9998 160C68.5198 160 66.3332 161.333 64.9998 162.667C63.6665 161.333 61.4798 160 58.9998 160C54.9998 160 51.6665 163.333 51.6665 168C51.6665 176.801 60.5587 182.046 64.3678 184.292C64.5981 184.428 64.8098 184.553 64.9998 184.667C65.1899 184.553 65.4016 184.428 65.6319 184.292C69.441 182.046 78.3332 176.801 78.3332 168ZM69.4718 178.537C68.4798 179.327 67.4198 180.064 66.2452 180.805C65.8465 181.056 65.4518 181.297 64.9998 181.567C64.5478 181.297 64.1532 181.056 63.7545 180.804C62.5798 180.064 61.5198 179.327 60.5265 178.537C56.5545 175.377 54.3332 171.925 54.3332 168C54.3332 164.875 56.4132 162.667 58.9998 162.667C60.4345 162.667 61.9865 163.427 63.1145 164.552L64.9998 166.437L66.8852 164.552C68.0132 163.427 69.5652 162.667 70.9998 162.667C73.6172 162.667 75.6665 164.853 75.6665 168C75.6665 171.924 73.4465 175.377 69.4718 178.537Z" fill="#001018"/>
</svg>
