<svg width="196" height="172" viewBox="0 0 196 172" fill="none" xmlns="http://www.w3.org/2000/svg">
<rect x="0.5" y="0.5" width="195" height="171" rx="4.5" stroke="#7B61FF" stroke-dasharray="10 5"/>
<path d="M150 90.6484C150 91.2006 149.552 91.6484 149 91.6484H135C134.448 91.6484 134 91.2006 134 90.6484V81.6484H131L141.327 72.2604C141.709 71.9132 142.291 71.9132 142.673 72.2604L153 81.6484H150V90.6484Z" fill="#001018"/>
<path d="M143.333 33.7655C143.333 34.1337 143.035 34.4322 142.667 34.4322H133.333C132.965 34.4322 132.667 34.1337 132.667 33.7655V27.7655H130.667L137.551 21.5068C137.806 21.2754 138.194 21.2754 138.449 21.5068L145.333 27.7655H143.333V33.7655Z" fill="#001018"/>
<path d="M156.667 147.531C156.667 148.268 156.07 148.865 155.333 148.865H136.667C135.93 148.865 135.333 148.268 135.333 147.531V135.531H131.333L145.103 123.014C145.612 122.551 146.389 122.551 146.897 123.014L160.667 135.531H156.667V147.531Z" fill="#001018"/>
<path fill-rule="evenodd" clip-rule="evenodd" d="M23 90.6484C23 91.2006 23.4477 91.6484 24 91.6484H38C38.5523 91.6484 39 91.2006 39 90.6484V81.6484H42L31.673 72.2604C31.2915 71.9132 30.7085 71.9132 30.327 72.2604L20 81.6484H23V90.6484ZM37 79.8054V89.6484H25V79.8054L31 74.3514L37 79.8054Z" fill="#001018"/>
<path fill-rule="evenodd" clip-rule="evenodd" d="M21.6665 33.7655C21.6665 34.1337 21.965 34.4322 22.3332 34.4322H31.6665C32.0347 34.4322 32.3332 34.1337 32.3332 33.7655V27.7655H34.3332L27.4485 21.5068C27.1942 21.2754 26.8055 21.2754 26.5512 21.5068L19.6665 27.7655H21.6665V33.7655ZM30.9998 26.5368V33.0988H22.9998V26.5368L26.9998 22.9008L30.9998 26.5368Z" fill="#001018"/>
<path fill-rule="evenodd" clip-rule="evenodd" d="M24.3335 147.531C24.3335 148.268 24.9304 148.865 25.6668 148.865H44.3335C45.0699 148.865 45.6668 148.268 45.6668 147.531V135.531H49.6668L35.8975 123.014C35.3888 122.551 34.6115 122.551 34.1028 123.014L20.3335 135.531H24.3335V147.531ZM43.0002 133.074V146.198H27.0002V133.074L35.0002 125.802L43.0002 133.074Z" fill="#001018"/>
</svg>
