<svg width="124" height="74" viewBox="0 0 124 74" fill="none" xmlns="http://www.w3.org/2000/svg">
<rect x="0.5" y="0.5" width="123" height="73" rx="4.5" stroke="#8A38F5" stroke-dasharray="10 5"/>
<path fill-rule="evenodd" clip-rule="evenodd" d="M28.466 46.4133C28.466 47.0024 28.9436 47.48 29.5328 47.48H44.4674C45.0565 47.48 45.5341 47.0024 45.5341 46.4133V36.8125H48.7344L37.718 26.7978C37.311 26.4274 36.6891 26.4274 36.2821 26.7978L25.2657 36.8125H28.466V46.4133ZM43.4006 34.8464V45.3465H30.5995V34.8464L37.0001 29.0283L43.4006 34.8464Z" fill="#001018"/>
<path fill-rule="evenodd" clip-rule="evenodd" d="M78.466 46.4133C78.466 47.0024 78.9436 47.48 79.5328 47.48H94.4674C95.0565 47.48 95.5341 47.0024 95.5341 46.4133V36.8125H98.7344L87.718 26.7978C87.311 26.4274 86.6891 26.4274 86.2821 26.7978L75.2657 36.8125H78.466V46.4133ZM93.4006 34.8464V45.3465H80.5995V34.8464L87.0001 29.0283L93.4006 34.8464Z" fill="#808080"/>
</svg>
