<svg width="74" height="307" viewBox="0 0 74 307" fill="none" xmlns="http://www.w3.org/2000/svg">
<rect x="0.5" y="0.5" width="73" height="306" rx="4.5" stroke="#8A38F5" stroke-dasharray="10 5"/>
<path fill-rule="evenodd" clip-rule="evenodd" d="M28.466 46.4133C28.466 47.0024 28.9436 47.48 29.5327 47.48H44.4673C45.0564 47.48 45.534 47.0024 45.534 46.4133V36.8125H48.7343L37.7179 26.7978C37.3109 26.4274 36.6891 26.4274 36.2821 26.7978L25.2657 36.8125H28.466V46.4133ZM43.4005 34.8464V45.3465H30.5995V34.8464L37 29.0283L43.4005 34.8464Z" fill="#001018"/>
<path fill-rule="evenodd" clip-rule="evenodd" d="M48.336 107.826L43.7667 103.258C45.1293 101.558 45.8704 99.4441 45.8673 97.2656C45.8673 91.9655 41.5658 87.6639 36.2657 87.6639C30.9655 87.6639 26.664 91.9655 26.664 97.2656C26.664 102.566 30.9655 106.867 36.2657 106.867C38.4442 106.87 40.5584 106.129 42.2582 104.767L46.8264 109.336L48.336 107.826ZM43.7336 97.2656C43.7366 99.2077 42.9805 101.074 41.6265 102.467L41.4665 102.627C40.0742 103.98 38.2077 104.737 36.2656 104.734C32.139 104.734 28.7977 101.391 28.7977 97.2656C28.7977 93.139 32.139 89.7977 36.2656 89.7977C40.3911 89.7977 43.7336 93.139 43.7336 97.2656Z" fill="black"/>
<path fill-rule="evenodd" clip-rule="evenodd" d="M47.6681 156.033C47.6681 152.299 45.0416 149.632 41.8007 149.632C39.8164 149.632 38.0668 150.699 37 151.766C35.9332 150.699 34.1836 149.632 32.1994 149.632C28.9989 149.632 26.3319 152.299 26.3319 156.033C26.3319 163.075 33.4466 167.271 36.4943 169.068C36.6786 169.177 36.848 169.277 37 169.368C37.1521 169.277 37.3215 169.177 37.5057 169.068C40.5534 167.271 47.6681 163.075 47.6681 156.033ZM40.5781 164.464C39.7844 165.095 38.9363 165.685 37.9964 166.278C37.6774 166.479 37.3617 166.672 37 166.888C36.6384 166.672 36.3226 166.479 36.0036 166.277C35.0638 165.685 34.2156 165.095 33.4209 164.464C30.2428 161.935 28.4655 159.174 28.4655 156.033C28.4655 153.532 30.1298 151.766 32.1994 151.766C33.3473 151.766 34.589 152.374 35.4915 153.274L37 154.783L38.5085 153.274C39.411 152.374 40.6528 151.766 41.8007 151.766C43.8948 151.766 45.5345 153.515 45.5345 156.033C45.5345 159.172 43.7583 161.935 40.5781 164.464Z" fill="black"/>
<path d="M28.4667 282.2C28.4667 279.937 29.3657 277.766 30.966 276.166C32.5663 274.566 34.7368 273.667 37 273.667C39.2632 273.667 41.4337 274.566 43.034 276.166C44.6343 277.766 45.5333 279.937 45.5333 282.2H43.4C43.4 280.503 42.7257 278.875 41.5255 277.675C40.3253 276.474 38.6974 275.8 37 275.8C35.3026 275.8 33.6748 276.474 32.4745 277.675C31.2743 278.875 30.6 280.503 30.6 282.2H28.4667ZM37 272.6C33.464 272.6 30.6 269.736 30.6 266.2C30.6 262.664 33.464 259.8 37 259.8C40.536 259.8 43.4 262.664 43.4 266.2C43.4 269.736 40.536 272.6 37 272.6ZM37 270.467C39.3573 270.467 41.2667 268.557 41.2667 266.2C41.2667 263.843 39.3573 261.933 37 261.933C34.6427 261.933 32.7333 263.843 32.7333 266.2C32.7333 268.557 34.6427 270.467 37 270.467Z" fill="black"/>
<path d="M31.3333 216.033V213.767C31.3333 212.264 31.9303 210.822 32.993 209.76C34.0558 208.697 35.4971 208.1 37 208.1C38.5029 208.1 39.9442 208.697 41.0069 209.76C42.0696 210.822 42.6667 212.264 42.6667 213.767V216.033H46.0667C46.3672 216.033 46.6555 216.153 46.868 216.365C47.0806 216.578 47.2 216.866 47.2 217.167V230.767C47.2 231.067 47.0806 231.355 46.868 231.568C46.6555 231.781 46.3672 231.9 46.0667 231.9H27.9333C27.6327 231.9 27.3445 231.781 27.1319 231.568C26.9194 231.355 26.8 231.067 26.8 230.767V217.167C26.8 216.866 26.9194 216.578 27.1319 216.365C27.3445 216.153 27.6327 216.033 27.9333 216.033H31.3333ZM31.3333 218.3H29.0667V229.633H44.9333V218.3H42.6667V220.567H40.4V218.3H33.6V220.567H31.3333V218.3ZM33.6 216.033H40.4V213.767C40.4 212.865 40.0418 212 39.4042 211.362C38.7665 210.725 37.9017 210.367 37 210.367C36.0983 210.367 35.2334 210.725 34.5958 211.362C33.9582 212 33.6 212.865 33.6 213.767V216.033Z" fill="#001018"/>
</svg>
