<svg width="123" height="74" viewBox="0 0 123 74" fill="none" xmlns="http://www.w3.org/2000/svg">
<rect x="0.5" y="0.5" width="122" height="73" rx="4.5" stroke="#8A38F5" stroke-dasharray="10 5"/>
<path fill-rule="evenodd" clip-rule="evenodd" d="M26.3321 44.2342V42.1007H27.3989V34.6662C27.3989 29.345 31.6981 25.032 37 25.032C42.302 25.032 46.6011 29.345 46.6011 34.6662V42.1007H47.6679V44.2342H26.3321ZM44.4676 42.1007V34.6662C44.4676 30.5239 41.1242 27.1656 37 27.1656C32.8758 27.1656 29.5325 30.5239 29.5325 34.6662V42.1007H44.4676ZM37 47.968C38.4729 47.968 39.667 46.7739 39.667 45.301H34.333C34.333 46.7739 35.5271 47.968 37 47.968Z" fill="#001018"/>
<path fill-rule="evenodd" clip-rule="evenodd" d="M75.33 44.2023V42.0687H76.3967V34.6342C76.3967 29.313 80.6959 25 85.9979 25C91.2998 25 95.599 29.313 95.599 34.6342V42.0687H96.6658V44.2023H75.33ZM93.4654 42.0687V34.6342C93.4654 30.4919 90.1221 27.1336 85.9979 27.1336C81.8737 27.1336 78.5303 30.4919 78.5303 34.6342V42.0687H93.4654ZM85.9979 47.936C87.4708 47.936 88.6649 46.742 88.6649 45.269H83.3309C83.3309 46.742 84.5249 47.936 85.9979 47.936Z" fill="#001018"/>
<circle cx="94.5" cy="28.5" r="6.5" fill="#C08A5B"/>
</svg>
