<svg width="196" height="307" viewBox="0 0 196 307" fill="none" xmlns="http://www.w3.org/2000/svg">
<rect x="0.5" y="0.5" width="195" height="306" rx="4.5" stroke="#7B61FF" stroke-dasharray="10 5"/>
<path fill-rule="evenodd" clip-rule="evenodd" d="M128.031 150.617L132.314 154.899L130.899 156.314L126.617 152.031C125.024 153.308 123.042 154.003 121 154C116.032 154 112 149.968 112 145C112 140.032 116.032 136 121 136C125.968 136 130 140.032 130 145C130.003 147.042 129.308 149.024 128.031 150.617ZM126.025 149.875C127.294 148.57 128.003 146.82 128 145C128 141.132 124.867 138 121 138C117.132 138 114 141.132 114 145C114 148.867 117.132 152 121 152C122.82 152.003 124.57 151.294 125.875 150.025L126.025 149.875ZM121 150C123.761 150 126 147.761 126 145C126 142.239 123.761 140 121 140C118.239 140 116 142.239 116 145C116 147.761 118.239 150 121 150Z" fill="#001018"/>
<path fill-rule="evenodd" clip-rule="evenodd" d="M130.096 278.147L136 284.05L134.05 286L128.147 280.096C125.951 281.857 123.22 282.814 120.405 282.81C113.558 282.81 108 277.253 108 270.405C108 263.558 113.558 258 120.405 258C127.253 258 132.81 263.558 132.81 270.405C132.814 273.22 131.857 275.951 130.096 278.147ZM127.331 277.125C129.081 275.326 130.058 272.914 130.054 270.405C130.054 265.074 125.735 260.757 120.405 260.757C115.074 260.757 110.757 265.074 110.757 270.405C110.757 275.735 115.074 280.054 120.405 280.054C122.914 280.058 125.326 279.081 127.125 277.331L127.331 277.125ZM120.405 277.297C124.211 277.297 127.297 274.211 127.297 270.405C127.297 266.599 124.211 263.513 120.405 263.513C116.599 263.513 113.513 266.599 113.513 270.405C113.513 274.211 116.599 277.297 120.405 277.297Z" fill="#001018"/>
<path fill-rule="evenodd" clip-rule="evenodd" d="M126.015 31.0727L128.87 33.9268L127.927 34.87L125.073 32.0152C124.011 32.8665 122.69 33.3295 121.329 33.3276C118.018 33.3276 115.33 30.6401 115.33 27.3288C115.33 24.0174 118.018 21.33 121.329 21.33C124.64 21.33 127.328 24.0174 127.328 27.3288C127.33 28.6898 126.867 30.0107 126.015 31.0727ZM124.678 30.5781C125.524 29.7082 125.997 28.5422 125.995 27.3288C125.995 24.7506 123.906 22.663 121.329 22.663C118.751 22.663 116.663 24.7506 116.663 27.3288C116.663 29.9063 118.751 31.9945 121.329 31.9945C122.542 31.9964 123.708 31.524 124.578 30.6781L124.678 30.5781ZM121.329 30.6615C123.169 30.6615 124.662 29.1694 124.662 27.3288C124.662 25.4882 123.169 23.9961 121.329 23.9961C119.488 23.9961 117.996 25.4882 117.996 27.3288C117.996 29.1694 119.488 30.6615 121.329 30.6615Z" fill="#001018"/>
<path fill-rule="evenodd" clip-rule="evenodd" d="M67.314 154.899L63.031 150.617C64.3082 149.024 65.0029 147.042 65 145C65 140.032 60.968 136 56 136C51.032 136 47 140.032 47 145C47 149.968 51.032 154 56 154C58.042 154.003 60.0237 153.308 61.617 152.031L65.899 156.314L67.314 154.899ZM63 145C63.0029 146.82 62.2941 148.57 61.025 149.875L60.875 150.025C59.5699 151.294 57.8204 152.003 56 152C52.132 152 49 148.867 49 145C49 141.132 52.132 138 56 138C59.867 138 63 141.132 63 145Z" fill="#001018"/>
<path fill-rule="evenodd" clip-rule="evenodd" d="M70.7521 283.865L65.0414 278.156C66.7444 276.032 67.6706 273.389 67.6667 270.667C67.6667 264.043 62.2907 258.667 55.6667 258.667C49.0427 258.667 43.6667 264.043 43.6667 270.667C43.6667 277.291 49.0427 282.667 55.6667 282.667C58.3894 282.67 61.0317 281.744 63.1561 280.041L68.8654 285.752L70.7521 283.865ZM65.0001 270.667C65.0039 273.094 64.0589 275.426 62.3667 277.167L62.1667 277.367C60.4266 279.059 58.094 280.004 55.6667 280C50.5094 280 46.3334 275.823 46.3334 270.667C46.3334 265.509 50.5094 261.333 55.6667 261.333C60.8227 261.333 65.0001 265.509 65.0001 270.667Z" fill="#001018"/>
<path fill-rule="evenodd" clip-rule="evenodd" d="M63.8759 33.9327L61.0206 31.078C61.8721 30.0159 62.3352 28.6947 62.3333 27.3334C62.3333 24.0214 59.6453 21.3334 56.3333 21.3334C53.0213 21.3334 50.3333 24.0214 50.3333 27.3334C50.3333 30.6454 53.0213 33.3334 56.3333 33.3334C57.6946 33.3353 59.0157 32.8722 60.0779 32.0207L62.9326 34.876L63.8759 33.9327ZM60.9999 27.3334C61.0018 28.547 60.5293 29.7133 59.6833 30.5834L59.5833 30.6834C58.7132 31.5294 57.5469 32.002 56.3333 32C53.7546 32 51.6666 29.9114 51.6666 27.3334C51.6666 24.7547 53.7546 22.6667 56.3333 22.6667C58.9113 22.6667 60.9999 24.7547 60.9999 27.3334Z" fill="#001018"/>
</svg>
