<svg width="121" height="176" viewBox="0 0 121 176" fill="none" xmlns="http://www.w3.org/2000/svg">
<rect x="0.5" y="0.5" width="120" height="175" rx="4.5" stroke="#7B61FF" stroke-dasharray="10 5"/>
<g clip-path="url(#clip0_8763_1552)">
<path d="M31 66V64C31 62.6739 31.5268 61.4021 32.4645 60.4645C33.4021 59.5268 34.6739 59 36 59C37.3261 59 38.5979 59.5268 39.5355 60.4645C40.4732 61.4021 41 62.6739 41 64V66H44C44.2652 66 44.5196 66.1054 44.7071 66.2929C44.8946 66.4804 45 66.7348 45 67V79C45 79.2652 44.8946 79.5196 44.7071 79.7071C44.5196 79.8946 44.2652 80 44 80H28C27.7348 80 27.4804 79.8946 27.2929 79.7071C27.1054 79.5196 27 79.2652 27 79V67C27 66.7348 27.1054 66.4804 27.2929 66.2929C27.4804 66.1054 27.7348 66 28 66H31ZM31 68H29V78H43V68H41V70H39V68H33V70H31V68ZM33 66H39V64C39 63.2044 38.6839 62.4413 38.1213 61.8787C37.5587 61.3161 36.7956 61 36 61C35.2044 61 34.4413 61.3161 33.8787 61.8787C33.3161 62.4413 33 63.2044 33 64V66Z" fill="#001018"/>
</g>
<g clip-path="url(#clip1_8763_1552)">
<path d="M29.3333 113.333V110.667C29.3333 108.899 30.0357 107.203 31.286 105.953C32.5362 104.702 34.2319 104 36 104C37.7681 104 39.4638 104.702 40.714 105.953C41.9643 107.203 42.6667 108.899 42.6667 110.667V113.333H46.6667C47.0203 113.333 47.3594 113.474 47.6095 113.724C47.8595 113.974 48 114.313 48 114.667V130.667C48 131.02 47.8595 131.359 47.6095 131.609C47.3594 131.86 47.0203 132 46.6667 132H25.3333C24.9797 132 24.6406 131.86 24.3905 131.609C24.1405 131.359 24 131.02 24 130.667V114.667C24 114.313 24.1405 113.974 24.3905 113.724C24.6406 113.474 24.9797 113.333 25.3333 113.333H29.3333ZM29.3333 116H26.6667V129.333H45.3333V116H42.6667V118.667H40V116H32V118.667H29.3333V116ZM32 113.333H40V110.667C40 109.606 39.5786 108.588 38.8284 107.838C38.0783 107.088 37.0609 106.667 36 106.667C34.9391 106.667 33.9217 107.088 33.1716 107.838C32.4214 108.588 32 109.606 32 110.667V113.333Z" fill="#001018"/>
</g>
<path d="M32.6667 25.6667V24.3333C32.6667 23.4493 33.0179 22.6014 33.643 21.9763C34.2681 21.3512 35.1159 21 36 21C36.8841 21 37.7319 21.3512 38.357 21.9763C38.9821 22.6014 39.3333 23.4493 39.3333 24.3333V25.6667H41.3333C41.5101 25.6667 41.6797 25.7369 41.8047 25.8619C41.9298 25.987 42 26.1565 42 26.3333V34.3333C42 34.5101 41.9298 34.6797 41.8047 34.8047C41.6797 34.9298 41.5101 35 41.3333 35H30.6667C30.4899 35 30.3203 34.9298 30.1953 34.8047C30.0702 34.6797 30 34.5101 30 34.3333V26.3333C30 26.1565 30.0702 25.987 30.1953 25.8619C30.3203 25.7369 30.4899 25.6667 30.6667 25.6667H32.6667ZM32.6667 27H31.3333V33.6667H40.6667V27H39.3333V28.3333H38V27H34V28.3333H32.6667V27ZM34 25.6667H38V24.3333C38 23.8029 37.7893 23.2942 37.4142 22.9191C37.0391 22.544 36.5304 22.3333 36 22.3333C35.4696 22.3333 34.9609 22.544 34.5858 22.9191C34.2107 23.2942 34 23.8029 34 24.3333V25.6667Z" fill="#001018"/>
<g clip-path="url(#clip2_8763_1552)">
<path d="M85 59C85.6566 59 86.3068 59.1293 86.9134 59.3806C87.52 59.6319 88.0712 60.0002 88.5355 60.4645C88.9998 60.9288 89.3681 61.48 89.6194 62.0866C89.8707 62.6932 90 63.3434 90 64V66H93C93.2652 66 93.5196 66.1054 93.7071 66.2929C93.8946 66.4804 94 66.7348 94 67V79C94 79.2652 93.8946 79.5196 93.7071 79.7071C93.5196 79.8946 93.2652 80 93 80H77C76.7348 80 76.4804 79.8946 76.2929 79.7071C76.1054 79.5196 76 79.2652 76 79V67C76 66.7348 76.1054 66.4804 76.2929 66.2929C76.4804 66.1054 76.7348 66 77 66H80V64C80 62.6739 80.5268 61.4021 81.4645 60.4645C82.4021 59.5268 83.6739 59 85 59ZM90 69H88V70C88.0003 70.2549 88.0979 70.5 88.2728 70.6854C88.4478 70.8707 88.687 70.9822 88.9414 70.9972C89.1958 71.0121 89.4464 70.9293 89.6418 70.7657C89.8373 70.6021 89.9629 70.3701 89.993 70.117L90 70V69ZM82 69H80V70C80.0003 70.2549 80.0979 70.5 80.2728 70.6854C80.4478 70.8707 80.687 70.9822 80.9414 70.9972C81.1958 71.0121 81.4464 70.9293 81.6418 70.7657C81.8373 70.6021 81.9629 70.3701 81.993 70.117L82 70V69ZM85 61C84.2348 61 83.4985 61.2923 82.9417 61.8173C82.385 62.3422 82.0499 63.0601 82.005 63.824L82 64V66H88V64C88 63.2348 87.7077 62.4985 87.1827 61.9417C86.6578 61.385 85.9399 61.0499 85.176 61.005L85 61Z" fill="#001018"/>
</g>
<g clip-path="url(#clip3_8763_1552)">
<path d="M85 104C85.8755 104 86.7424 104.172 87.5512 104.507C88.3601 104.843 89.095 105.334 89.714 105.953C90.3331 106.572 90.8242 107.307 91.1592 108.115C91.4942 108.924 91.6667 109.791 91.6667 110.667V113.333H95.6667C96.0203 113.333 96.3594 113.474 96.6095 113.724C96.8595 113.974 97 114.313 97 114.667V130.667C97 131.02 96.8595 131.359 96.6095 131.609C96.3594 131.86 96.0203 132 95.6667 132H74.3333C73.9797 132 73.6406 131.86 73.3905 131.609C73.1405 131.359 73 131.02 73 130.667V114.667C73 114.313 73.1405 113.974 73.3905 113.724C73.6406 113.474 73.9797 113.333 74.3333 113.333H78.3333V110.667C78.3333 108.899 79.0357 107.203 80.286 105.953C81.5362 104.702 83.2319 104 85 104ZM91.6667 117.333H89V118.667C89.0004 119.007 89.1305 119.333 89.3638 119.58C89.5971 119.828 89.9159 119.976 90.2552 119.996C90.5944 120.016 90.9285 119.906 91.1891 119.688C91.4497 119.47 91.6172 119.16 91.6573 118.823L91.6667 118.667V117.333ZM81 117.333H78.3333V118.667C78.3337 119.007 78.4638 119.333 78.6971 119.58C78.9304 119.828 79.2493 119.976 79.5885 119.996C79.9278 120.016 80.2618 119.906 80.5224 119.688C80.783 119.47 80.9505 119.16 80.9907 118.823L81 118.667V117.333ZM85 106.667C83.9797 106.667 82.998 107.056 82.2557 107.756C81.5133 108.456 81.0665 109.413 81.0067 110.432L81 110.667V113.333H89V110.667C89.0001 109.646 88.6102 108.665 87.9103 107.922C87.2103 107.18 86.2532 106.733 85.2347 106.673L85 106.667Z" fill="#001018"/>
</g>
<path d="M85 21C85.4377 21 85.8712 21.0862 86.2756 21.2537C86.68 21.4213 87.0475 21.6668 87.357 21.9763C87.6666 22.2858 87.9121 22.6533 88.0796 23.0577C88.2471 23.4621 88.3333 23.8956 88.3333 24.3333V25.6667H90.3333C90.5101 25.6667 90.6797 25.7369 90.8047 25.8619C90.9298 25.987 91 26.1565 91 26.3333V34.3333C91 34.5101 90.9298 34.6797 90.8047 34.8047C90.6797 34.9298 90.5101 35 90.3333 35H79.6667C79.4899 35 79.3203 34.9298 79.1953 34.8047C79.0702 34.6797 79 34.5101 79 34.3333V26.3333C79 26.1565 79.0702 25.987 79.1953 25.8619C79.3203 25.7369 79.4899 25.6667 79.6667 25.6667H81.6667V24.3333C81.6667 23.4493 82.0179 22.6014 82.643 21.9763C83.2681 21.3512 84.1159 21 85 21ZM88.3333 27.6667H87V28.3333C87.0002 28.5033 87.0653 28.6667 87.1819 28.7902C87.2985 28.9138 87.458 28.9882 87.6276 28.9981C87.7972 29.0081 87.9643 28.9529 88.0946 28.8438C88.2249 28.7348 88.3086 28.5801 88.3287 28.4113L88.3333 28.3333V27.6667ZM83 27.6667H81.6667V28.3333C81.6669 28.5033 81.7319 28.6667 81.8486 28.7902C81.9652 28.9138 82.1246 28.9882 82.2943 28.9981C82.4639 29.0081 82.6309 28.9529 82.7612 28.8438C82.8915 28.7348 82.9753 28.5801 82.9953 28.4113L83 28.3333V27.6667ZM85 22.3333C84.4899 22.3333 83.999 22.5282 83.6278 22.8782C83.2567 23.2282 83.0333 23.7067 83.0033 24.216L83 24.3333V25.6667H87V24.3333C87 23.8232 86.8051 23.3323 86.4551 22.9612C86.1052 22.59 85.6266 22.3666 85.1173 22.3367L85 22.3333Z" fill="#001018"/>
<defs>
<clipPath id="clip0_8763_1552">
<rect width="24" height="24" fill="white" transform="translate(24 57)"/>
</clipPath>
<clipPath id="clip1_8763_1552">
<rect width="32" height="32" fill="white" transform="translate(20 102)"/>
</clipPath>
<clipPath id="clip2_8763_1552">
<rect width="24" height="24" fill="white" transform="translate(73 57)"/>
</clipPath>
<clipPath id="clip3_8763_1552">
<rect width="32" height="32" fill="white" transform="translate(69 102)"/>
</clipPath>
</defs>
</svg>
