<svg width="196" height="174" viewBox="0 0 196 174" fill="none" xmlns="http://www.w3.org/2000/svg">
<rect x="0.5" y="0.5" width="195" height="173" rx="4.5" stroke="#7B61FF" stroke-dasharray="10 5"/>
<path fill-rule="evenodd" clip-rule="evenodd" d="M118 90C118 93.315 120.685 96 124 96C127.315 96 130 93.315 130 90C130 86.685 127.315 84 124 84C120.685 84 118 86.685 118 90ZM124 97C119.582 97 116 100.582 116 105H132C132 100.582 128.418 97 124 97Z" fill="#001018"/>
<path fill-rule="evenodd" clip-rule="evenodd" d="M120 140.667C120 145.087 123.58 148.667 128 148.667C132.42 148.667 136 145.087 136 140.667C136 136.247 132.42 132.667 128 132.667C123.58 132.667 120 136.247 120 140.667ZM128 150C122.109 150 117.333 154.776 117.333 160.667H138.667C138.667 154.776 133.891 150 128 150Z" fill="#001018"/>
<path fill-rule="evenodd" clip-rule="evenodd" d="M116 38.3334C116 40.5434 117.79 42.3334 120 42.3334C122.21 42.3334 124 40.5434 124 38.3334C124 36.1234 122.21 34.3334 120 34.3334C117.79 34.3334 116 36.1234 116 38.3334ZM120 43C117.054 43 114.667 45.3879 114.667 48.3334H125.333C125.333 45.3879 122.945 43 120 43Z" fill="#001018"/>
<path d="M34 105C34 102.878 34.8429 100.843 36.3431 99.3431C37.8434 97.8429 39.8783 97 42 97C44.1217 97 46.1566 97.8429 47.6569 99.3431C49.1571 100.843 50 102.878 50 105H48C48 103.409 47.3679 101.883 46.2426 100.757C45.1174 99.6321 43.5913 99 42 99C40.4087 99 38.8826 99.6321 37.7574 100.757C36.6321 101.883 36 103.409 36 105H34ZM42 96C38.685 96 36 93.315 36 90C36 86.685 38.685 84 42 84C45.315 84 48 86.685 48 90C48 93.315 45.315 96 42 96ZM42 94C44.21 94 46 92.21 46 90C46 87.79 44.21 86 42 86C39.79 86 38 87.79 38 90C38 92.21 39.79 94 42 94Z" fill="#001018"/>
<path d="M35.3301 160.566C35.3301 157.737 36.4537 155.024 38.4538 153.024C40.4539 151.024 43.1665 149.901 45.9951 149.901C48.8236 149.901 51.5363 151.024 53.5364 153.024C55.5364 155.024 56.6601 157.737 56.6601 160.566H53.9938C53.9938 158.444 53.1511 156.41 51.651 154.91C50.151 153.41 48.1165 152.567 45.9951 152.567C43.8737 152.567 41.8392 153.41 40.3391 154.91C38.8391 156.41 37.9963 158.444 37.9963 160.566H35.3301ZM45.9951 148.567C41.5758 148.567 37.9963 144.988 37.9963 140.569C37.9963 136.149 41.5758 132.57 45.9951 132.57C50.4144 132.57 53.9938 136.149 53.9938 140.569C53.9938 144.988 50.4144 148.567 45.9951 148.567ZM45.9951 145.901C48.9413 145.901 51.3276 143.515 51.3276 140.569C51.3276 137.622 48.9413 135.236 45.9951 135.236C43.0489 135.236 40.6626 137.622 40.6626 140.569C40.6626 143.515 43.0489 145.901 45.9951 145.901Z" fill="#001018"/>
<path d="M32.6699 48.3343C32.6699 46.9194 33.232 45.5624 34.2325 44.5619C35.233 43.5614 36.59 42.9993 38.0049 42.9993C39.4199 42.9993 40.7768 43.5614 41.7773 44.5619C42.7778 45.5624 43.3399 46.9194 43.3399 48.3343H42.0062C42.0062 47.2731 41.5846 46.2554 40.8342 45.505C40.0839 44.7546 39.0661 44.3331 38.0049 44.3331C36.9437 44.3331 35.926 44.7546 35.1756 45.505C34.4252 46.2554 34.0037 47.2731 34.0037 48.3343H32.6699ZM38.0049 42.3325C35.7942 42.3325 34.0037 40.5419 34.0037 38.3312C34.0037 36.1205 35.7942 34.33 38.0049 34.33C40.2156 34.33 42.0062 36.1205 42.0062 38.3312C42.0062 40.5419 40.2156 42.3325 38.0049 42.3325ZM38.0049 40.9987C39.4787 40.9987 40.6724 39.805 40.6724 38.3312C40.6724 36.8574 39.4787 35.6637 38.0049 35.6637C36.5311 35.6637 35.3374 36.8574 35.3374 38.3312C35.3374 39.805 36.5311 40.9987 38.0049 40.9987Z" fill="#001018"/>
</svg>
